<svg width="620" height="420" viewBox="0 0 620 420" fill="none" xmlns="http://www.w3.org/2000/svg">
  <rect width="620" height="420" rx="30" fill="#FFF8FC"/>
  <rect width="620" height="420" rx="30" fill="url(#hallGlow)"/>

  <g stroke="#5964F2" stroke-width="2.2" stroke-linecap="round" stroke-linejoin="round">
    <path d="M82 108H538"/>
    <path d="M70 108V360"/>
    <path d="M550 108V360"/>
    <path d="M70 360H550"/>
    <path d="M142 148V344"/>
    <path d="M236 148V344"/>
    <path d="M330 148V344"/>
    <path d="M424 148V344"/>
    <path d="M518 148V344"/>
  </g>

  <g>
    <path d="M104 344V212C104 184 126 162 154 162C182 162 204 184 204 212V344" fill="#EDF5FF" stroke="#5964F2" stroke-width="2.2"/>
    <path d="M198 344V212C198 184 220 162 248 162C276 162 298 184 298 212V344" fill="#F5ECFF" stroke="#5964F2" stroke-width="2.2"/>
    <path d="M292 344V212C292 184 314 162 342 162C370 162 392 184 392 212V344" fill="#EDFAF4" stroke="#5964F2" stroke-width="2.2"/>
    <path d="M386 344V212C386 184 408 162 436 162C464 162 486 184 486 212V344" fill="#FFF1F7" stroke="#5964F2" stroke-width="2.2"/>
  </g>

  <g opacity="0.86">
    <circle cx="154" cy="234" r="20" fill="#D9CAFF" stroke="#5964F2" stroke-width="2"/>
    <path d="M154 204L168 226L154 236L140 226L154 204Z" fill="#BEE6FF" stroke="#5964F2" stroke-width="2"/>
    <path d="M140 226L154 236V254L140 244V226Z" fill="#C7F0E5" stroke="#5964F2" stroke-width="2"/>
    <path d="M168 226L154 236V254L168 244V226Z" fill="#FFE3F0" stroke="#5964F2" stroke-width="2"/>

    <circle cx="248" cy="234" r="20" fill="#E9F3FF" stroke="#5964F2" stroke-width="2"/>
    <path d="M232 236H264" stroke="#5964F2" stroke-width="2"/>
    <path d="M236 248L246 258L262 242" stroke="#5964F2" stroke-width="2"/>

    <circle cx="342" cy="234" r="20" fill="#E7FFF6" stroke="#5964F2" stroke-width="2"/>
    <rect x="330" y="222" width="24" height="24" rx="6" fill="#FFFFFF" stroke="#5964F2" stroke-width="2"/>
    <path d="M336 236H348" stroke="#5964F2" stroke-width="2"/>
    <path d="M342 230V242" stroke="#5964F2" stroke-width="2"/>

    <circle cx="436" cy="234" r="20" fill="#FFE5F1" stroke="#5964F2" stroke-width="2"/>
    <path d="M424 244H448" stroke="#5964F2" stroke-width="2"/>
    <path d="M430 234L438 226L446 234" stroke="#5964F2" stroke-width="2"/>
  </g>

  <g>
    <rect x="474" y="192" width="58" height="94" rx="14" fill="#FFFFFF" stroke="#5964F2" stroke-width="2"/>
    <path d="M488 262H518" stroke="#5964F2" stroke-width="2"/>
    <rect x="488" y="234" width="8" height="28" rx="4" fill="#C7F0E5" stroke="#5964F2" stroke-width="2"/>
    <rect x="502" y="220" width="8" height="42" rx="4" fill="#D9CAFF" stroke="#5964F2" stroke-width="2"/>
    <rect x="516" y="244" width="8" height="18" rx="4" fill="#BEE6FF" stroke="#5964F2" stroke-width="2"/>
    <path d="M482 202L458 188" stroke="#5964F2" stroke-width="2"/>
    <path d="M482 218L458 218" stroke="#5964F2" stroke-width="2"/>
  </g>

  <g>
    <circle cx="138" cy="308" r="16" fill="#D6EBFF" stroke="#5964F2" stroke-width="2"/>
    <path d="M122 362C126 328 142 318 158 320C174 322 184 338 186 364" fill="#CFE8FF" stroke="#5964F2" stroke-width="2.2"/>
    <path d="M188 334L222 316" stroke="#5964F2" stroke-width="2.2"/>

    <circle cx="260" cy="302" r="16" fill="#FFE1ED" stroke="#5964F2" stroke-width="2"/>
    <path d="M244 356C248 322 264 312 280 314C296 316 306 332 308 358" fill="#FFD8E8" stroke="#5964F2" stroke-width="2.2"/>
    <path d="M242 332L222 318" stroke="#5964F2" stroke-width="2.2"/>

    <circle cx="454" cy="304" r="16" fill="#FFF3D5" stroke="#5964F2" stroke-width="2"/>
    <path d="M438 360C442 326 458 316 474 318C490 320 500 336 502 362" fill="#FFE8C6" stroke="#5964F2" stroke-width="2.2"/>
  </g>

  <g opacity="0.7" stroke="#5964F2" stroke-width="1.8">
    <path d="M92 380H528"/>
    <path d="M106 396L114 360"/>
    <path d="M176 396L184 360"/>
    <path d="M246 396L254 360"/>
    <path d="M316 396L324 360"/>
    <path d="M386 396L394 360"/>
    <path d="M456 396L464 360"/>
    <path d="M526 396L534 360"/>
  </g>

  <defs>
    <radialGradient id="hallGlow" cx="0" cy="0" r="1" gradientUnits="userSpaceOnUse" gradientTransform="translate(310 162) rotate(90) scale(220 360)">
      <stop stop-color="#FFFFFF"/>
      <stop offset="1" stop-color="#F2F7FF"/>
    </radialGradient>
  </defs>
</svg>
