<svg width="620" height="420" viewBox="0 0 620 420" fill="none" xmlns="http://www.w3.org/2000/svg">
  <rect width="620" height="420" rx="28" fill="#F4F7FF"/>
  <rect width="620" height="420" rx="28" fill="url(#labGlow)"/>

  <g stroke="#5964F2" stroke-width="2.2" stroke-linecap="round" stroke-linejoin="round">
    <path d="M74 84H546"/>
    <path d="M106 84V356"/>
    <path d="M514 84V356"/>
    <path d="M106 356H514"/>
    <path d="M182 84V356"/>
    <path d="M438 84V356"/>
  </g>

  <g>
    <rect x="208" y="118" width="204" height="140" rx="22" fill="#FFFFFF" stroke="#5964F2" stroke-width="2.2"/>
    <circle cx="310" cy="182" r="34" fill="#FFF9F2" stroke="#5964F2" stroke-width="2.2"/>
    <path d="M310 150L332 182L310 196L288 182L310 150Z" fill="#D0C1FF" stroke="#5964F2" stroke-width="2"/>
    <path d="M288 182L310 196V226L288 210V182Z" fill="#BEE6FF" stroke="#5964F2" stroke-width="2"/>
    <path d="M332 182L310 196V226L332 210V182Z" fill="#C7F0E5" stroke="#5964F2" stroke-width="2"/>
    <rect x="236" y="220" width="46" height="12" rx="6" fill="#D8CAFF" stroke="#5964F2" stroke-width="2"/>
    <rect x="338" y="220" width="46" height="12" rx="6" fill="#BEE6FF" stroke="#5964F2" stroke-width="2"/>
  </g>

  <g>
    <path d="M184 150C204 122 226 112 256 112" stroke="#5964F2" stroke-width="2.2"/>
    <path d="M436 150C416 122 394 112 364 112" stroke="#5964F2" stroke-width="2.2"/>
    <rect x="152" y="122" width="32" height="52" rx="12" fill="#FFE8C6" stroke="#5964F2" stroke-width="2.2"/>
    <rect x="436" y="122" width="32" height="52" rx="12" fill="#CFE8FF" stroke="#5964F2" stroke-width="2.2"/>
    <path d="M168 174V206" stroke="#5964F2" stroke-width="2.2"/>
    <path d="M452 174V206" stroke="#5964F2" stroke-width="2.2"/>
  </g>

  <g>
    <circle cx="182" cy="286" r="18" fill="#D6EBFF" stroke="#5964F2" stroke-width="2"/>
    <path d="M164 352C168 312 184 300 202 304C220 308 230 326 232 356" fill="#CFE8FF" stroke="#5964F2" stroke-width="2.2"/>
    <path d="M200 316L220 292" stroke="#5964F2" stroke-width="2.2"/>

    <circle cx="282" cy="322" r="16" fill="#FFF3D5" stroke="#5964F2" stroke-width="2"/>
    <path d="M266 382C270 348 286 338 302 342C318 346 326 364 328 384" fill="#FFE8C6" stroke="#5964F2" stroke-width="2.2"/>
    <path d="M298 348L308 338" stroke="#5964F2" stroke-width="2"/>

    <circle cx="420" cy="286" r="18" fill="#FFE3F0" stroke="#5964F2" stroke-width="2"/>
    <path d="M402 352C406 312 422 300 440 304C458 308 468 326 470 356" fill="#FFD8E8" stroke="#5964F2" stroke-width="2.2"/>
    <path d="M402 318L384 296" stroke="#5964F2" stroke-width="2.2"/>
  </g>

  <g>
    <rect x="132" y="228" width="74" height="44" rx="14" fill="#FFFFFF" stroke="#5964F2" stroke-width="2"/>
    <rect x="414" y="228" width="74" height="44" rx="14" fill="#FFFFFF" stroke="#5964F2" stroke-width="2"/>
    <path d="M150 248H188" stroke="#5964F2" stroke-width="2"/>
    <path d="M432 248H470" stroke="#5964F2" stroke-width="2"/>
    <circle cx="168" cy="248" r="8" fill="#C7F0E5" stroke="#5964F2" stroke-width="1.8"/>
    <circle cx="450" cy="248" r="8" fill="#D8CAFF" stroke="#5964F2" stroke-width="1.8"/>
  </g>

  <g opacity="0.8">
    <circle cx="126" cy="108" r="8" fill="#BEE6FF" stroke="#5964F2" stroke-width="1.8"/>
    <circle cx="500" cy="108" r="8" fill="#FFE3F0" stroke="#5964F2" stroke-width="1.8"/>
    <circle cx="238" cy="90" r="8" fill="#C7F0E5" stroke="#5964F2" stroke-width="1.8"/>
    <circle cx="382" cy="90" r="8" fill="#FFF3D5" stroke="#5964F2" stroke-width="1.8"/>
  </g>

  <defs>
    <radialGradient id="labGlow" cx="0" cy="0" r="1" gradientUnits="userSpaceOnUse" gradientTransform="translate(310 190) rotate(90) scale(220 320)">
      <stop stop-color="#FFFFFF"/>
      <stop offset="1" stop-color="#F4F8FF"/>
    </radialGradient>
  </defs>
</svg>
