<svg width="560" height="480" viewBox="0 0 560 480" fill="none" xmlns="http://www.w3.org/2000/svg">
  <rect width="560" height="480" rx="28" fill="#EDF8F6"/>
  <path d="M144 386C122 334 130 276 158 256C182 238 214 252 228 286L268 382" fill="#D4E5FF" stroke="#6068FF" stroke-width="2"/>
  <path d="M416 386C438 334 430 276 402 256C378 238 346 252 332 286L292 382" fill="#D4E5FF" stroke="#6068FF" stroke-width="2"/>
  <path d="M280 112L338 210L280 238L222 210L280 112Z" fill="#C9E6FF" stroke="#6068FF" stroke-width="2"/>
  <path d="M222 210L280 238V362L222 284V210Z" fill="#B9A1FF" stroke="#6068FF" stroke-width="2"/>
  <path d="M338 210L280 238V362L338 284V210Z" fill="#8BC7FF" stroke="#6068FF" stroke-width="2"/>
  <path d="M170 390C186 344 220 330 250 344C280 358 280 382 280 402" stroke="#6068FF" stroke-width="2"/>
  <path d="M390 390C374 344 340 330 310 344C280 358 280 382 280 402" stroke="#6068FF" stroke-width="2"/>
</svg>
